<?xml version="1.0" encoding="UTF-8" standalone="no" ?>
<!DOCTYPE svg PUBLIC "-//W3C//DTD SVG 1.1//EN" "http://www.w3.org/Graphics/SVG/1.1/DTD/svg11.dtd">
<svg xmlns="http://www.w3.org/2000/svg" xmlns:xlink="http://www.w3.org/1999/xlink" version="1.1" width="400" height="400" viewBox="0 0 400 400" xml:space="preserve">
<desc>Created with Fabric.js 3.6.2</desc>
<defs>
</defs>
<g transform="matrix(3.13 0 0 3.13 200.31 204.53)" id="Fill-133"  >
<path style="stroke: none; stroke-width: 1; stroke-dasharray: none; stroke-linecap: butt; stroke-dashoffset: 0; stroke-linejoin: miter; stroke-miterlimit: 4; fill: rgb(19,69,99); fill-rule: nonzero; opacity: 1;"  transform=" translate(-2.1, 444.55)" d="M 19.6 -424 h -35.2 c -2.4 0 -4.4 -2 -4.4 -4.4 v -32.3 c 0 -2.4 1.6 -4.4 3.7 -4.4 h 2.2 v 2.9 h -2.2 c -0.3 0 -0.7 0.6 -0.7 1.5 v 32.3 c 0 0.8 0.7 1.5 1.5 1.5 h 35.2 c 0.8 0 1.5 -0.7 1.5 -1.5 v -32.3 c 0 -0.9 -0.5 -1.5 -0.7 -1.5 h -2.2 v -2.9 h 2.2 c 2 0 3.7 2 3.7 4.4 v 32.3 C 24 -426 22 -424 19.6 -424" stroke-linecap="round" />
</g>
<g transform="matrix(3.13 0 0 3.13 163.44 144.84)" id="Fill-134"  >
<path style="stroke: none; stroke-width: 1; stroke-dasharray: none; stroke-linecap: butt; stroke-dashoffset: 0; stroke-linejoin: miter; stroke-miterlimit: 4; fill: rgb(19,69,99); fill-rule: nonzero; opacity: 1;"  transform=" translate(9.7, 463.65)" d="M -9.7 -459.2 c -0.8 0 -1.5 -0.7 -1.5 -1.5 v -5.9 c 0 -0.8 0.7 -1.5 1.5 -1.5 s 1.5 0.7 1.5 1.5 v 5.9 C -8.3 -459.9 -8.9 -459.2 -9.7 -459.2" stroke-linecap="round" />
</g>
<g transform="matrix(3.13 0 0 3.13 236.56 144.84)" id="Fill-135"  >
<path style="stroke: none; stroke-width: 1; stroke-dasharray: none; stroke-linecap: butt; stroke-dashoffset: 0; stroke-linejoin: miter; stroke-miterlimit: 4; fill: rgb(19,69,99); fill-rule: nonzero; opacity: 1;"  transform=" translate(-13.7, 463.65)" d="M 13.7 -459.2 c -0.8 0 -1.5 -0.7 -1.5 -1.5 v -5.9 c 0 -0.8 0.7 -1.5 1.5 -1.5 s 1.5 0.7 1.5 1.5 v 5.9 C 15.2 -459.9 14.5 -459.2 13.7 -459.2" stroke-linecap="round" />
</g>
<g transform="matrix(3.13 0 0 3.13 200 145)" id="Fill-136"  >
<polygon style="stroke: none; stroke-width: 1; stroke-dasharray: none; stroke-linecap: butt; stroke-dashoffset: 0; stroke-linejoin: miter; stroke-miterlimit: 4; fill: rgb(19,69,99); fill-rule: nonzero; opacity: 1;"  points="-7.3,-1.5 7.3,-1.5 7.3,1.5 -7.3,1.5 " />
</g>
<g transform="matrix(3.13 0 0 3.13 200 172.5)" id="Fill-137"  >
<polygon style="stroke: none; stroke-width: 1; stroke-dasharray: none; stroke-linecap: butt; stroke-dashoffset: 0; stroke-linejoin: miter; stroke-miterlimit: 4; fill: rgb(19,69,99); fill-rule: nonzero; opacity: 1;"  points="-19.1,-1.5 19.1,-1.5 19.1,1.5 -19.1,1.5 " />
</g>
<g transform="matrix(3.13 0 0 3.13 245.78 190.78)" id="Fill-138"  >
<polygon style="stroke: none; stroke-width: 1; stroke-dasharray: none; stroke-linecap: butt; stroke-dashoffset: 0; stroke-linejoin: miter; stroke-miterlimit: 4; fill: rgb(19,69,99); fill-rule: nonzero; opacity: 1;"  points="-1.45,-1.45 1.45,-1.45 1.45,1.45 -1.45,1.45 " />
</g>
<g transform="matrix(3.13 0 0 3.13 227.5 190.78)" id="Fill-139"  >
<polygon style="stroke: none; stroke-width: 1; stroke-dasharray: none; stroke-linecap: butt; stroke-dashoffset: 0; stroke-linejoin: miter; stroke-miterlimit: 4; fill: rgb(19,69,99); fill-rule: nonzero; opacity: 1;"  points="-1.5,-1.45 1.5,-1.45 1.5,1.45 -1.5,1.45 " />
</g>
<g transform="matrix(3.13 0 0 3.13 209.22 190.78)" id="Fill-140"  >
<polygon style="stroke: none; stroke-width: 1; stroke-dasharray: none; stroke-linecap: butt; stroke-dashoffset: 0; stroke-linejoin: miter; stroke-miterlimit: 4; fill: rgb(19,69,99); fill-rule: nonzero; opacity: 1;"  points="-1.45,-1.45 1.45,-1.45 1.45,1.45 -1.45,1.45 " />
</g>
<g transform="matrix(3.13 0 0 3.13 190.78 190.78)" id="Fill-141"  >
<polygon style="stroke: none; stroke-width: 1; stroke-dasharray: none; stroke-linecap: butt; stroke-dashoffset: 0; stroke-linejoin: miter; stroke-miterlimit: 4; fill: rgb(19,69,99); fill-rule: nonzero; opacity: 1;"  points="-1.45,-1.45 1.45,-1.45 1.45,1.45 -1.45,1.45 " />
</g>
<g transform="matrix(3.13 0 0 3.13 172.5 190.78)" id="Fill-142"  >
<polygon style="stroke: none; stroke-width: 1; stroke-dasharray: none; stroke-linecap: butt; stroke-dashoffset: 0; stroke-linejoin: miter; stroke-miterlimit: 4; fill: rgb(19,69,99); fill-rule: nonzero; opacity: 1;"  points="-1.5,-1.45 1.5,-1.45 1.5,1.45 -1.5,1.45 " />
</g>
<g transform="matrix(3.13 0 0 3.13 245.78 209.22)" id="Fill-143"  >
<polygon style="stroke: none; stroke-width: 1; stroke-dasharray: none; stroke-linecap: butt; stroke-dashoffset: 0; stroke-linejoin: miter; stroke-miterlimit: 4; fill: rgb(19,69,99); fill-rule: nonzero; opacity: 1;"  points="-1.45,-1.45 1.45,-1.45 1.45,1.45 -1.45,1.45 " />
</g>
<g transform="matrix(3.13 0 0 3.13 227.5 209.22)" id="Fill-144"  >
<polygon style="stroke: none; stroke-width: 1; stroke-dasharray: none; stroke-linecap: butt; stroke-dashoffset: 0; stroke-linejoin: miter; stroke-miterlimit: 4; fill: rgb(19,69,99); fill-rule: nonzero; opacity: 1;"  points="-1.5,-1.45 1.5,-1.45 1.5,1.45 -1.5,1.45 " />
</g>
<g transform="matrix(3.13 0 0 3.13 209.22 209.22)" id="Fill-145"  >
<polygon style="stroke: none; stroke-width: 1; stroke-dasharray: none; stroke-linecap: butt; stroke-dashoffset: 0; stroke-linejoin: miter; stroke-miterlimit: 4; fill: rgb(19,69,99); fill-rule: nonzero; opacity: 1;"  points="-1.45,-1.45 1.45,-1.45 1.45,1.45 -1.45,1.45 " />
</g>
<g transform="matrix(3.13 0 0 3.13 190.78 209.22)" id="Fill-146"  >
<polygon style="stroke: none; stroke-width: 1; stroke-dasharray: none; stroke-linecap: butt; stroke-dashoffset: 0; stroke-linejoin: miter; stroke-miterlimit: 4; fill: rgb(19,69,99); fill-rule: nonzero; opacity: 1;"  points="-1.45,-1.45 1.45,-1.45 1.45,1.45 -1.45,1.45 " />
</g>
<g transform="matrix(3.13 0 0 3.13 172.5 209.22)" id="Fill-147"  >
<polygon style="stroke: none; stroke-width: 1; stroke-dasharray: none; stroke-linecap: butt; stroke-dashoffset: 0; stroke-linejoin: miter; stroke-miterlimit: 4; fill: rgb(19,69,99); fill-rule: nonzero; opacity: 1;"  points="-1.5,-1.45 1.5,-1.45 1.5,1.45 -1.5,1.45 " />
</g>
<g transform="matrix(3.13 0 0 3.13 154.22 209.22)" id="Fill-148"  >
<polygon style="stroke: none; stroke-width: 1; stroke-dasharray: none; stroke-linecap: butt; stroke-dashoffset: 0; stroke-linejoin: miter; stroke-miterlimit: 4; fill: rgb(19,69,99); fill-rule: nonzero; opacity: 1;"  points="-1.45,-1.45 1.45,-1.45 1.45,1.45 -1.45,1.45 " />
</g>
<g transform="matrix(3.13 0 0 3.13 245.78 227.5)" id="Fill-149"  >
<polygon style="stroke: none; stroke-width: 1; stroke-dasharray: none; stroke-linecap: butt; stroke-dashoffset: 0; stroke-linejoin: miter; stroke-miterlimit: 4; fill: rgb(19,69,99); fill-rule: nonzero; opacity: 1;"  points="-1.45,-1.5 1.45,-1.5 1.45,1.5 -1.45,1.5 " />
</g>
<g transform="matrix(3.13 0 0 3.13 227.5 227.5)" id="Fill-150"  >
<polygon style="stroke: none; stroke-width: 1; stroke-dasharray: none; stroke-linecap: butt; stroke-dashoffset: 0; stroke-linejoin: miter; stroke-miterlimit: 4; fill: rgb(19,69,99); fill-rule: nonzero; opacity: 1;"  points="-1.5,-1.5 1.5,-1.5 1.5,1.5 -1.5,1.5 " />
</g>
<g transform="matrix(3.13 0 0 3.13 209.22 227.5)" id="Fill-151"  >
<polygon style="stroke: none; stroke-width: 1; stroke-dasharray: none; stroke-linecap: butt; stroke-dashoffset: 0; stroke-linejoin: miter; stroke-miterlimit: 4; fill: rgb(19,69,99); fill-rule: nonzero; opacity: 1;"  points="-1.45,-1.5 1.45,-1.5 1.45,1.5 -1.45,1.5 " />
</g>
<g transform="matrix(3.13 0 0 3.13 190.78 227.5)" id="Fill-152"  >
<polygon style="stroke: none; stroke-width: 1; stroke-dasharray: none; stroke-linecap: butt; stroke-dashoffset: 0; stroke-linejoin: miter; stroke-miterlimit: 4; fill: rgb(19,69,99); fill-rule: nonzero; opacity: 1;"  points="-1.45,-1.5 1.45,-1.5 1.45,1.5 -1.45,1.5 " />
</g>
<g transform="matrix(3.13 0 0 3.13 172.5 227.5)" id="Fill-153"  >
<polygon style="stroke: none; stroke-width: 1; stroke-dasharray: none; stroke-linecap: butt; stroke-dashoffset: 0; stroke-linejoin: miter; stroke-miterlimit: 4; fill: rgb(19,69,99); fill-rule: nonzero; opacity: 1;"  points="-1.5,-1.5 1.5,-1.5 1.5,1.5 -1.5,1.5 " />
</g>
<g transform="matrix(3.13 0 0 3.13 154.22 227.5)" id="Fill-154"  >
<polygon style="stroke: none; stroke-width: 1; stroke-dasharray: none; stroke-linecap: butt; stroke-dashoffset: 0; stroke-linejoin: miter; stroke-miterlimit: 4; fill: rgb(19,69,99); fill-rule: nonzero; opacity: 1;"  points="-1.45,-1.5 1.45,-1.5 1.45,1.5 -1.45,1.5 " />
</g>
<g transform="matrix(3.13 0 0 3.13 227.5 245.78)" id="Fill-155"  >
<polygon style="stroke: none; stroke-width: 1; stroke-dasharray: none; stroke-linecap: butt; stroke-dashoffset: 0; stroke-linejoin: miter; stroke-miterlimit: 4; fill: rgb(19,69,99); fill-rule: nonzero; opacity: 1;"  points="-1.5,-1.45 1.5,-1.45 1.5,1.45 -1.5,1.45 " />
</g>
<g transform="matrix(3.13 0 0 3.13 209.22 245.78)" id="Fill-156"  >
<polygon style="stroke: none; stroke-width: 1; stroke-dasharray: none; stroke-linecap: butt; stroke-dashoffset: 0; stroke-linejoin: miter; stroke-miterlimit: 4; fill: rgb(19,69,99); fill-rule: nonzero; opacity: 1;"  points="-1.45,-1.45 1.45,-1.45 1.45,1.45 -1.45,1.45 " />
</g>
<g transform="matrix(3.13 0 0 3.13 190.78 245.78)" id="Fill-157"  >
<polygon style="stroke: none; stroke-width: 1; stroke-dasharray: none; stroke-linecap: butt; stroke-dashoffset: 0; stroke-linejoin: miter; stroke-miterlimit: 4; fill: rgb(19,69,99); fill-rule: nonzero; opacity: 1;"  points="-1.45,-1.45 1.45,-1.45 1.45,1.45 -1.45,1.45 " />
</g>
<g transform="matrix(3.13 0 0 3.13 172.5 245.78)" id="Fill-158"  >
<polygon style="stroke: none; stroke-width: 1; stroke-dasharray: none; stroke-linecap: butt; stroke-dashoffset: 0; stroke-linejoin: miter; stroke-miterlimit: 4; fill: rgb(19,69,99); fill-rule: nonzero; opacity: 1;"  points="-1.5,-1.45 1.5,-1.45 1.5,1.45 -1.5,1.45 " />
</g>
<g transform="matrix(3.13 0 0 3.13 154.22 245.78)" id="Fill-159"  >
<polygon style="stroke: none; stroke-width: 1; stroke-dasharray: none; stroke-linecap: butt; stroke-dashoffset: 0; stroke-linejoin: miter; stroke-miterlimit: 4; fill: rgb(19,69,99); fill-rule: nonzero; opacity: 1;"  points="-1.45,-1.45 1.45,-1.45 1.45,1.45 -1.45,1.45 " />
</g>
</svg>